<?xml version="1.0" encoding="utf-8"?>
<!-- Generator: Adobe Illustrator 23.0.1, SVG Export Plug-In . SVG Version: 6.00 Build 0)  -->
<svg version="1.1" id="Layer_1" xmlns="http://www.w3.org/2000/svg" xmlns:xlink="http://www.w3.org/1999/xlink" x="0px" y="0px"
	 viewBox="0 0 232.44 38.45" style="enable-background:new 0 0 232.44 38.45;" xml:space="preserve">
<style type="text/css">
	.st0{fill-rule:evenodd;clip-rule:evenodd;fill:#E53843;}
	.st1{fill:none;stroke:#E53843;stroke-width:0.1924;stroke-miterlimit:3.8637;}
	.st2{fill:#1B1E1F;}
	.st3{fill:#E53843;}
	.st4{fill:#807F7F;}
	.st5{fill:#171717;}
	.st6{fill:#FFFFFF;}
	.st7{fill-rule:evenodd;clip-rule:evenodd;fill:#0C0E0E;}
	.st8{fill-rule:evenodd;clip-rule:evenodd;}
	.st9{fill:none;stroke:#000000;stroke-width:0.4113;stroke-miterlimit:3.8636;}
	.st10{fill-rule:evenodd;clip-rule:evenodd;fill:#FFFFFF;}
	.st11{fill-rule:evenodd;clip-rule:evenodd;fill:#E42627;}
	.st12{fill-rule:evenodd;clip-rule:evenodd;fill:#0071B9;}
	.st13{fill:none;stroke:#000000;stroke-width:0.1385;stroke-miterlimit:3.8636;}
	.st14{fill-rule:evenodd;clip-rule:evenodd;fill:#FFD300;}
	.st15{fill-rule:evenodd;clip-rule:evenodd;fill:#565756;}
	.st16{stroke:#000000;stroke-width:0.1385;stroke-miterlimit:3.8636;}
</style>
<g>
	<path class="st0" d="M45.58,18.1c-0.48-0.66-1.03-1.13-1.64-1.41c-0.61-0.28-1.37-0.42-2.29-0.42c-1.49,0-2.66,0.39-3.52,1.16
		c-0.86,0.78-1.3,1.82-1.3,3.13c0,1.3,0.41,2.33,1.23,3.1c0.82,0.77,1.96,1.16,3.41,1.16c0.87,0,1.61-0.14,2.24-0.43
		c0.62-0.29,1.2-0.76,1.74-1.42l1.35,0.81c-1.36,1.65-3.14,2.48-5.32,2.48c-1.89,0-3.41-0.51-4.54-1.53c-1.13-1.02-1.7-2.38-1.7-4.1
		c0-1.77,0.58-3.18,1.75-4.22c1.17-1.05,2.72-1.57,4.66-1.57c2.27,0,4.02,0.82,5.27,2.46L45.58,18.1z"/>
	<path class="st1" d="M45.58,18.1c-0.48-0.66-1.03-1.13-1.64-1.41c-0.61-0.28-1.37-0.42-2.29-0.42c-1.49,0-2.66,0.39-3.52,1.16
		c-0.86,0.78-1.3,1.82-1.3,3.13c0,1.3,0.41,2.33,1.23,3.1c0.82,0.77,1.96,1.16,3.41,1.16c0.87,0,1.61-0.14,2.24-0.43
		c0.62-0.29,1.2-0.76,1.74-1.42l1.35,0.81c-1.36,1.65-3.14,2.48-5.32,2.48c-1.89,0-3.41-0.51-4.54-1.53c-1.13-1.02-1.7-2.38-1.7-4.1
		c0-1.77,0.58-3.18,1.75-4.22c1.17-1.05,2.72-1.57,4.66-1.57c2.27,0,4.02,0.82,5.27,2.46L45.58,18.1z"/>
	<polygon class="st2" points="2.83,26.3 10.26,12.81 14.71,12.81 7.42,26.3 	"/>
	<polygon class="st2" points="19.7,21.59 12.69,9.22 17.74,9.22 24.52,21.6 	"/>
	<polygon class="st0" points="24.99,22.77 21.56,26.22 26.27,26.22 29.65,22.77 	"/>
	<path class="st2" d="M23.68,22.73l-3.4,3.49l-11.31,0l0.06-0.11l5.83-10.55l1.31,2.23c0,0-3.43,3.85,0.25,4.93
		c1.12,0.01,2.24,0.02,3.07,0.02L23.68,22.73z"/>
	<path class="st0" d="M58.66,17.49c-0.83-0.71-1.99-1.06-3.5-1.06c-1.51,0-2.67,0.36-3.48,1.07c-0.81,0.72-1.22,1.73-1.22,3.05
		c0,1.32,0.41,2.36,1.24,3.12c0.83,0.76,1.98,1.14,3.47,1.14c1.51,0,2.67-0.38,3.5-1.13c0.83-0.75,1.24-1.8,1.24-3.13
		C59.9,19.22,59.49,18.2,58.66,17.49z M59.77,24.71c-1.14,1.02-2.68,1.53-4.61,1.53c-1.95,0-3.49-0.51-4.61-1.53
		c-1.13-1.02-1.69-2.41-1.69-4.17c0-1.76,0.58-3.14,1.73-4.13c1.11-0.96,2.64-1.44,4.57-1.44c1.94,0,3.47,0.48,4.59,1.44
		c1.16,0.99,1.73,2.37,1.73,4.13C61.48,22.3,60.91,23.69,59.77,24.71z"/>
	<path class="st1" d="M58.66,17.49c-0.83-0.71-1.99-1.06-3.5-1.06c-1.51,0-2.67,0.36-3.48,1.07c-0.81,0.72-1.22,1.73-1.22,3.05
		c0,1.32,0.41,2.36,1.24,3.12c0.83,0.76,1.98,1.14,3.47,1.14c1.51,0,2.67-0.38,3.5-1.13c0.83-0.75,1.24-1.8,1.24-3.13
		C59.9,19.22,59.49,18.2,58.66,17.49z M59.77,24.71c-1.14,1.02-2.68,1.53-4.61,1.53c-1.95,0-3.49-0.51-4.61-1.53
		c-1.13-1.02-1.69-2.41-1.69-4.17c0-1.76,0.58-3.14,1.73-4.13c1.11-0.96,2.64-1.44,4.57-1.44c1.94,0,3.47,0.48,4.59,1.44
		c1.16,0.99,1.73,2.37,1.73,4.13C61.48,22.3,60.91,23.69,59.77,24.71z"/>
	<polygon class="st0" points="81.64,16.38 81.64,26.13 80.05,26.13 80.05,16.38 75.76,16.38 75.76,14.94 85.91,14.94 85.91,16.38 	
		"/>
	<polygon class="st1" points="81.64,16.38 81.64,26.13 80.05,26.13 80.05,16.38 75.76,16.38 75.76,14.94 85.91,14.94 85.91,16.38 	
		"/>
	<polygon class="st0" points="119.06,16.38 119.06,26.13 117.48,26.13 117.48,16.38 113.18,16.38 113.18,14.94 123.34,14.94 
		123.34,16.38 	"/>
	<polygon class="st1" points="119.06,16.38 119.06,26.13 117.48,26.13 117.48,16.38 113.18,16.38 113.18,14.94 123.34,14.94 
		123.34,16.38 	"/>
	<path class="st0" d="M126.98,16.38v3.22v1.44c0,0,0,3.33,0,3.43c0,0.1,0,0.23,0,0.23h0.3h7.48v1.44h-9.34V14.94h9.26v1.44H126.98z
		 M133.79,21.03l-5.25,0V19.6c0.97,0.01,5.25,0,5.25,0V21.03z"/>
	<path class="st1" d="M126.98,16.38v3.22v1.44c0,0,0,3.33,0,3.43c0,0.1,0,0.23,0,0.23h0.3h7.48v1.44h-9.34V14.94h9.26v1.44H126.98z
		 M133.79,21.03l-5.25,0V19.6c0.97,0.01,5.25,0,5.25,0V21.03z"/>
	<path class="st0" d="M65.66,16.38v3.61v1.45v4.69h-1.58V14.94h5.76c2.87,0,4.31,1.03,4.31,3.1c0,1.18-0.48,2.05-1.45,2.62
		c0.86,0.54,1.29,1.35,1.29,2.44v3.02H72.4v-2.97c0-1.14-0.9-1.72-2.71-1.72h-1.06v-1.45h0.98c0.88,0,1.58-0.15,2.1-0.45
		c0.57-0.33,0.86-0.81,0.86-1.45c0-1.14-0.9-1.72-2.69-1.72H65.66z"/>
	<path class="st1" d="M65.66,16.38v3.61v1.45v4.69h-1.58V14.94h5.76c2.87,0,4.31,1.03,4.31,3.1c0,1.18-0.48,2.05-1.45,2.62
		c0.86,0.54,1.29,1.35,1.29,2.44v3.02H72.4v-2.97c0-1.14-0.9-1.72-2.71-1.72h-1.06v-1.45h0.98c0.88,0,1.58-0.15,2.1-0.45
		c0.57-0.33,0.86-0.81,0.86-1.45c0-1.14-0.9-1.72-2.69-1.72H65.66z"/>
	<path class="st0" d="M109.13,16.38v3.61v1.45v4.69h1.58V14.94h-5.76c-2.87,0-4.31,1.03-4.31,3.1c0,1.18,0.48,2.05,1.45,2.62
		c-0.86,0.54-1.29,1.35-1.29,2.44v3.02h1.58v-2.97c0-1.14,0.9-1.72,2.71-1.72h1.06v-1.45h-0.97c-0.88,0-1.58-0.15-2.1-0.45
		c-0.57-0.33-0.86-0.81-0.86-1.45c0-1.14,0.9-1.72,2.69-1.72H109.13z"/>
	<path class="st1" d="M109.13,16.38v3.61v1.45v4.69h1.58V14.94h-5.76c-2.87,0-4.31,1.03-4.31,3.1c0,1.18,0.48,2.05,1.45,2.62
		c-0.86,0.54-1.29,1.35-1.29,2.44v3.02h1.58v-2.97c0-1.14,0.9-1.72,2.71-1.72h1.06v-1.45h-0.97c-0.88,0-1.58-0.15-2.1-0.45
		c-0.57-0.33-0.86-0.81-0.86-1.45c0-1.14,0.9-1.72,2.69-1.72H109.13z"/>
	<polygon class="st0" points="96.45,26.32 92.01,16.94 87.58,26.32 85.78,26.32 91.46,14.98 92.72,14.98 98.2,26.32 	"/>
	<polygon class="st1" points="96.45,26.32 92.01,16.94 87.58,26.32 85.78,26.32 91.46,14.98 92.72,14.98 98.2,26.32 	"/>
	<polygon class="st3" points="97.05,26.32 88.59,26.32 92.01,24.93 92.86,24.93 96.65,24.93 	"/>
	<polygon class="st1" points="97.05,26.32 88.59,26.32 92.01,24.93 92.86,24.93 96.65,24.93 	"/>
</g>
<path class="st4" d="M216.2,32.05h0.19c0.1,0.01,0.21,0.01,0.31,0.02c0.26,0.03,0.54,0.1,0.75,0.27c0.1,0.08,0.18,0.18,0.24,0.3
	c-0.08,0.09-0.15,0.19-0.21,0.3c-0.08,0.12-0.14,0.24-0.2,0.37c0.02-0.16,0.03-0.32-0.04-0.47c-0.08-0.16-0.24-0.26-0.4-0.31
	c-0.24-0.07-0.49-0.07-0.73-0.04c0,0.28,0,0.57,0,0.85c0,0.14,0,0.29,0,0.43c0.15,0,0.3,0.03,0.45,0.02
	c0.17-0.01,0.34-0.04,0.48-0.14c0.07-0.04,0.12-0.11,0.17-0.17c-0.02,0.07-0.04,0.14-0.06,0.2c-0.04,0.15-0.07,0.3-0.08,0.45
	c-0.19,0.06-0.38,0.08-0.58,0.09c-0.13,0-0.26-0.02-0.39-0.02c0,0.44,0,0.89,0,1.33c-0.16,0-0.31,0-0.47,0c0-1.09,0-2.19,0-3.28
	c0-0.06,0-0.12,0-0.18c0.09,0,0.19-0.01,0.29-0.01C216.02,32.06,216.11,32.07,216.2,32.05z"/>
<path class="st5" d="M218.09,32.3c0.24-0.15,0.52-0.23,0.8-0.22c0.28,0,0.56,0.02,0.82,0.12c0.1,0.04,0.2,0.09,0.29,0.16
	c-0.13,0.66-0.26,1.33-0.39,1.99c-0.03,0.15-0.03,0.29-0.02,0.44c0.01,0.26,0.06,0.52,0.14,0.77c-0.19,0-0.38,0-0.58,0
	c-0.05-0.11-0.07-0.23-0.11-0.34c-0.03,0.04-0.06,0.08-0.1,0.11c-0.24,0.19-0.55,0.29-0.85,0.29c-0.16,0.01-0.32-0.01-0.47-0.08
	c-0.21-0.09-0.38-0.27-0.47-0.5c-0.11-0.28-0.1-0.59-0.08-0.89c0.02-0.15,0.04-0.3,0.08-0.45c0.02-0.07,0.04-0.13,0.06-0.2
	c0.02-0.06,0.05-0.12,0.07-0.17c0.06-0.13,0.12-0.25,0.2-0.37c0.06-0.1,0.13-0.2,0.21-0.3c0.05-0.06,0.1-0.11,0.15-0.16
	C217.92,32.41,218.01,32.35,218.09,32.3z"/>
<path class="st5" d="M221.38,32.2c0.28-0.12,0.59-0.14,0.89-0.11c0.16,0.02,0.32,0.07,0.47,0.16c-0.03,0.18-0.07,0.35-0.1,0.53
	c-0.15-0.12-0.35-0.18-0.54-0.18c-0.24-0.01-0.49,0.06-0.68,0.21c-0.19,0.15-0.33,0.37-0.43,0.6c-0.07,0.19-0.12,0.39-0.13,0.59
	c-0.01,0.15-0.01,0.3,0.02,0.45c0.03,0.14,0.09,0.27,0.17,0.37c0.12,0.14,0.28,0.25,0.46,0.26c0.22,0.01,0.45-0.04,0.65-0.15
	c0.08-0.03,0.15-0.09,0.22-0.13c-0.02,0.21-0.04,0.41-0.06,0.62c-0.25,0.13-0.53,0.19-0.81,0.19c-0.22,0.01-0.45-0.02-0.65-0.13
	c-0.25-0.13-0.43-0.37-0.52-0.64c-0.07-0.22-0.09-0.45-0.08-0.67c0.01-0.4,0.1-0.8,0.28-1.14C220.73,32.67,221.02,32.35,221.38,32.2
	z"/>
<path class="st4" d="M214.64,32.08c0.16,0,0.32,0,0.48,0c0,1.15,0,2.3,0,3.45c-0.16,0-0.32,0-0.48,0
	C214.64,34.39,214.64,33.23,214.64,32.08z"/>
<path class="st6" d="M216.11,32.5c0.24-0.03,0.49-0.03,0.73,0.04c0.16,0.05,0.32,0.14,0.4,0.31c0.07,0.15,0.06,0.31,0.04,0.47
	c-0.02,0.06-0.04,0.12-0.07,0.17c-0.05,0.07-0.1,0.13-0.17,0.17c-0.14,0.1-0.32,0.13-0.48,0.14c-0.15,0.01-0.3-0.01-0.45-0.02
	c-0.01-0.14,0-0.29,0-0.43C216.11,33.07,216.11,32.78,216.11,32.5z"/>
<path class="st6" d="M218.74,32.58c0.16-0.01,0.33-0.01,0.49,0.04c0.05,0.02,0.1,0.04,0.14,0.08c-0.05,0.3-0.12,0.6-0.18,0.9
	c-0.03,0.16-0.06,0.33-0.1,0.49c-0.06,0.25-0.17,0.49-0.32,0.7c-0.09,0.11-0.2,0.22-0.33,0.27c-0.11,0.06-0.24,0.05-0.36,0.03
	c-0.13-0.02-0.25-0.09-0.32-0.21c-0.07-0.12-0.09-0.27-0.1-0.41c0-0.39,0.06-0.79,0.23-1.15c0.12-0.23,0.27-0.45,0.48-0.6
	C218.49,32.65,218.61,32.6,218.74,32.58z"/>
<path class="st4" d="M207.79,32.08c2.12,0.38,4.25,0.65,6.39,0.8v0.99c-1.81-0.13-3.61-0.35-5.4-0.65c-0.34-0.05-0.66-0.14-1-0.16
	C207.78,32.74,207.78,32.41,207.79,32.08z M223.13,32.87c2.16-0.15,4.31-0.42,6.44-0.78c0.04,0.32,0.05,0.65,0.01,0.97
	c-0.83,0.12-1.65,0.27-2.47,0.38c-1.32,0.19-2.64,0.33-3.97,0.43V32.87z"/>
<path class="st7" d="M208.77,29.69c-0.17,0-0.3,0.08-0.4,0.24c-0.1,0.16-0.15,0.34-0.15,0.55c0,0.17,0.08,0.26,0.25,0.26
	c0.11,0,0.2-0.07,0.28-0.2c0.08-0.13,0.15-0.41,0.21-0.82C208.89,29.7,208.83,29.69,208.77,29.69z M209.2,30.44
	c-0.01,0.04-0.01,0.08-0.01,0.12c0,0.22,0.02,0.37,0.05,0.45H209c-0.07,0-0.12-0.05-0.16-0.16c-0.13,0.13-0.29,0.19-0.48,0.19
	c-0.17,0-0.31-0.05-0.4-0.15c-0.09-0.1-0.14-0.23-0.14-0.41c0-0.3,0.09-0.56,0.27-0.78c0.18-0.22,0.42-0.33,0.7-0.33
	c0.27,0,0.46,0.02,0.58,0.07L209.2,30.44z"/>
<path class="st7" d="M211.58,29.81c-0.1-0.08-0.21-0.11-0.32-0.11c-0.17,0-0.31,0.06-0.41,0.19c-0.1,0.13-0.16,0.29-0.16,0.48
	c0,0.1,0.03,0.18,0.09,0.26c0.06,0.07,0.13,0.11,0.23,0.11c0.13,0,0.29-0.06,0.47-0.17l-0.04,0.39c-0.15,0.06-0.31,0.1-0.47,0.1
	c-0.2,0-0.36-0.06-0.48-0.17c-0.12-0.11-0.18-0.27-0.18-0.46c0-0.3,0.09-0.54,0.26-0.74c0.17-0.19,0.4-0.29,0.68-0.29
	c0.16,0,0.3,0.03,0.41,0.1L211.58,29.81z"/>
<path class="st7" d="M213.67,29.8c-0.09-0.07-0.17-0.1-0.23-0.1c-0.1,0-0.19,0.04-0.27,0.13c-0.08,0.08-0.13,0.18-0.15,0.29
	l-0.17,0.9h-0.37l0.3-1.6h0.37l-0.03,0.14c0.13-0.11,0.28-0.17,0.44-0.17c0.04,0,0.11,0.01,0.22,0.03L213.67,29.8z"/>
<path class="st7" d="M214.98,30.04c0.06,0.02,0.13,0.03,0.21,0.03c0.14,0,0.25-0.02,0.34-0.06c0.09-0.04,0.14-0.1,0.14-0.18
	c0-0.09-0.09-0.13-0.28-0.13c-0.07,0-0.15,0.03-0.23,0.1C215.09,29.86,215.03,29.94,214.98,30.04z M214.91,30.32
	c0,0.03,0,0.05,0,0.07c0,0.11,0.03,0.2,0.1,0.26c0.07,0.06,0.16,0.09,0.28,0.09c0.06,0,0.14-0.02,0.22-0.05
	c0.08-0.03,0.15-0.07,0.19-0.12l-0.04,0.39c-0.13,0.06-0.28,0.09-0.46,0.09c-0.2,0-0.36-0.06-0.48-0.19
	c-0.12-0.12-0.18-0.29-0.18-0.51c0-0.27,0.09-0.5,0.26-0.69c0.18-0.18,0.41-0.27,0.69-0.27c0.17,0,0.3,0.04,0.41,0.11
	c0.1,0.07,0.16,0.17,0.16,0.3c0,0.18-0.08,0.32-0.23,0.42c-0.16,0.1-0.35,0.15-0.57,0.15C215.13,30.38,215.02,30.36,214.91,30.32z"
	/>
<path class="st7" d="M217.81,29.7c-0.17,0-0.31,0.06-0.41,0.19c-0.1,0.13-0.15,0.29-0.15,0.48c0,0.24,0.1,0.36,0.3,0.36
	c0.22,0,0.36-0.17,0.42-0.52l0.07-0.38C217.99,29.75,217.91,29.7,217.81,29.7z M218.2,31.02h-0.37l0.03-0.15
	c-0.08,0.12-0.22,0.18-0.41,0.18c-0.19,0-0.33-0.05-0.44-0.16c-0.11-0.11-0.16-0.26-0.16-0.45c0-0.31,0.09-0.56,0.26-0.75
	c0.17-0.2,0.4-0.29,0.68-0.29c0.05,0,0.11,0.01,0.18,0.03c0.07,0.02,0.11,0.04,0.14,0.07l0.14-0.72h0.36L218.2,31.02z"/>
<path class="st7" d="M219.82,31.02h-0.38l0.24-1.3h-0.2l0.06-0.3h0.58L219.82,31.02z M219.71,28.91c0-0.07,0.02-0.12,0.07-0.17
	c0.05-0.04,0.11-0.07,0.17-0.07c0.07,0,0.12,0.02,0.17,0.07c0.05,0.04,0.07,0.1,0.07,0.17c0,0.07-0.02,0.12-0.07,0.17
	c-0.05,0.04-0.1,0.07-0.17,0.07c-0.07,0-0.12-0.02-0.17-0.07C219.74,29.03,219.71,28.97,219.71,28.91z"/>
<path class="st7" d="M222.15,29.72h-0.44l-0.16,0.71c-0.01,0.06-0.02,0.1-0.02,0.14c0,0.11,0.06,0.16,0.19,0.16
	c0.05,0,0.14-0.03,0.27-0.08v0.34c-0.11,0.04-0.25,0.06-0.44,0.06c-0.12,0-0.22-0.04-0.29-0.11c-0.07-0.08-0.11-0.17-0.11-0.3
	c0-0.04,0-0.08,0.01-0.12l0.18-0.8h-0.18l0.06-0.3h0.18l0.06-0.33l0.43-0.16l-0.11,0.48h0.44L222.15,29.72z"/>
<path class="st7" d="M223.94,29.69c-0.17,0-0.3,0.08-0.4,0.24c-0.1,0.16-0.15,0.34-0.15,0.55c0,0.17,0.08,0.26,0.25,0.26
	c0.11,0,0.2-0.07,0.28-0.2c0.08-0.13,0.15-0.41,0.21-0.82C224.07,29.7,224,29.69,223.94,29.69z M224.37,30.44
	c-0.01,0.04-0.01,0.08-0.01,0.12c0,0.22,0.02,0.37,0.05,0.45h-0.23c-0.07,0-0.12-0.05-0.16-0.16c-0.13,0.13-0.29,0.19-0.48,0.19
	c-0.17,0-0.31-0.05-0.4-0.15c-0.09-0.1-0.14-0.23-0.14-0.41c0-0.3,0.09-0.56,0.27-0.78c0.18-0.22,0.42-0.33,0.7-0.33
	c0.27,0,0.46,0.02,0.58,0.07L224.37,30.44z"/>
<path class="st7" d="M226.43,29.7c-0.17,0-0.31,0.06-0.41,0.19c-0.1,0.13-0.15,0.29-0.15,0.48c0,0.24,0.1,0.36,0.3,0.36
	c0.22,0,0.36-0.17,0.42-0.52l0.07-0.38C226.61,29.75,226.54,29.7,226.43,29.7z M226.82,31.02h-0.37l0.03-0.15
	c-0.08,0.12-0.22,0.18-0.41,0.18c-0.19,0-0.33-0.05-0.44-0.16c-0.11-0.11-0.16-0.26-0.16-0.45c0-0.31,0.08-0.56,0.25-0.75
	c0.17-0.2,0.4-0.29,0.68-0.29c0.05,0,0.11,0.01,0.18,0.03c0.07,0.02,0.12,0.04,0.14,0.07l0.14-0.72h0.36L226.82,31.02z"/>
<path class="st7" d="M228.9,29.69c-0.17,0-0.3,0.08-0.4,0.24c-0.1,0.16-0.15,0.34-0.15,0.55c0,0.17,0.08,0.26,0.25,0.26
	c0.11,0,0.2-0.07,0.28-0.2c0.08-0.13,0.15-0.41,0.21-0.82C229.03,29.7,228.96,29.69,228.9,29.69z M229.33,30.44
	c-0.01,0.04-0.01,0.08-0.01,0.12c0,0.22,0.02,0.37,0.05,0.45h-0.23c-0.07,0-0.12-0.05-0.15-0.16c-0.13,0.13-0.29,0.19-0.48,0.19
	c-0.17,0-0.31-0.05-0.4-0.15c-0.09-0.1-0.14-0.23-0.14-0.41c0-0.3,0.09-0.56,0.27-0.78c0.18-0.22,0.42-0.33,0.69-0.33
	c0.27,0,0.46,0.02,0.58,0.07L229.33,30.44z"/>
<path class="st7" d="M209.11,26.76c-0.1-0.08-0.21-0.12-0.32-0.12c-0.17,0-0.31,0.06-0.41,0.19c-0.1,0.13-0.16,0.29-0.16,0.48
	c0,0.1,0.03,0.18,0.09,0.25c0.06,0.07,0.13,0.11,0.23,0.11c0.13,0,0.29-0.06,0.47-0.17l-0.04,0.39c-0.15,0.06-0.31,0.1-0.47,0.1
	c-0.2,0-0.36-0.06-0.48-0.17c-0.12-0.11-0.18-0.27-0.18-0.46c0-0.3,0.09-0.54,0.26-0.74c0.17-0.19,0.4-0.29,0.68-0.29
	c0.16,0,0.3,0.03,0.41,0.1L209.11,26.76z"/>
<path class="st7" d="M210.21,26.99c0.06,0.02,0.13,0.03,0.21,0.03c0.14,0,0.25-0.02,0.34-0.06c0.09-0.04,0.14-0.1,0.14-0.18
	c0-0.09-0.09-0.13-0.28-0.13c-0.07,0-0.15,0.03-0.23,0.1C210.32,26.81,210.26,26.89,210.21,26.99z M210.14,27.27
	c0,0.03,0,0.05,0,0.07c0,0.11,0.03,0.2,0.1,0.26c0.07,0.06,0.16,0.09,0.28,0.09c0.06,0,0.13-0.02,0.22-0.05
	c0.08-0.03,0.15-0.07,0.19-0.12l-0.04,0.39c-0.13,0.06-0.28,0.09-0.46,0.09c-0.2,0-0.36-0.06-0.48-0.19
	c-0.12-0.12-0.18-0.29-0.18-0.51c0-0.27,0.09-0.5,0.26-0.68c0.18-0.18,0.41-0.27,0.69-0.27c0.17,0,0.3,0.04,0.41,0.11
	c0.1,0.07,0.16,0.17,0.16,0.3c0,0.18-0.08,0.32-0.23,0.42c-0.16,0.1-0.35,0.15-0.57,0.15C210.36,27.32,210.25,27.3,210.14,27.27z"/>
<path class="st7" d="M213.01,26.74c-0.09-0.07-0.17-0.1-0.23-0.1c-0.1,0-0.19,0.04-0.27,0.13c-0.08,0.08-0.13,0.18-0.15,0.29
	l-0.17,0.9h-0.37l0.3-1.6h0.37l-0.03,0.14c0.13-0.11,0.28-0.17,0.44-0.17c0.04,0,0.11,0.01,0.22,0.03L213.01,26.74z"/>
<path class="st7" d="M214.74,26.66h-0.44l-0.16,0.71c-0.01,0.06-0.02,0.1-0.02,0.14c0,0.11,0.06,0.16,0.18,0.16
	c0.05,0,0.14-0.03,0.27-0.08v0.34c-0.11,0.04-0.25,0.06-0.44,0.06c-0.12,0-0.22-0.04-0.29-0.11c-0.07-0.08-0.11-0.17-0.11-0.3
	c0-0.04,0-0.08,0.01-0.12l0.18-0.8h-0.18l0.06-0.3h0.19l0.06-0.33l0.43-0.16l-0.11,0.48h0.44L214.74,26.66z"/>
<path class="st7" d="M215.82,27.96h-0.38l0.24-1.3h-0.2l0.06-0.3h0.58L215.82,27.96z M215.71,25.85c0-0.07,0.02-0.12,0.07-0.17
	c0.05-0.04,0.11-0.07,0.17-0.07c0.07,0,0.12,0.02,0.17,0.07c0.05,0.04,0.07,0.1,0.07,0.17c0,0.07-0.02,0.12-0.07,0.17
	c-0.05,0.04-0.1,0.07-0.17,0.07c-0.07,0-0.12-0.02-0.17-0.07C215.73,25.97,215.71,25.92,215.71,25.85z"/>
<path class="st7" d="M218.01,26.07c-0.08-0.04-0.15-0.05-0.21-0.05c-0.14,0-0.24,0.12-0.3,0.35h0.37l-0.04,0.3h-0.38l-0.24,1.4
	c-0.03,0.15-0.1,0.28-0.21,0.38c-0.11,0.1-0.25,0.15-0.4,0.15l-0.08-0.25c0.07-0.02,0.13-0.05,0.19-0.11
	c0.06-0.05,0.09-0.12,0.1-0.19l0.25-1.38h-0.23l0.05-0.3h0.22c0.1-0.44,0.34-0.65,0.7-0.65c0.1,0,0.19,0.02,0.26,0.06L218.01,26.07z
	"/>
<path class="st7" d="M218.87,27.96h-0.38l0.24-1.3h-0.2l0.06-0.3h0.58L218.87,27.96z M218.76,25.85c0-0.07,0.02-0.12,0.07-0.17
	c0.05-0.04,0.11-0.07,0.17-0.07c0.07,0,0.12,0.02,0.17,0.07c0.05,0.04,0.07,0.1,0.07,0.17c0,0.07-0.02,0.12-0.07,0.17
	c-0.05,0.04-0.1,0.07-0.17,0.07c-0.07,0-0.12-0.02-0.17-0.07C218.79,25.97,218.76,25.92,218.76,25.85z"/>
<path class="st7" d="M221.06,26.76c-0.1-0.08-0.21-0.12-0.32-0.12c-0.17,0-0.31,0.06-0.41,0.19c-0.1,0.13-0.16,0.29-0.16,0.48
	c0,0.1,0.03,0.18,0.09,0.25c0.06,0.07,0.13,0.11,0.23,0.11c0.13,0,0.29-0.06,0.47-0.17l-0.04,0.39c-0.15,0.06-0.31,0.1-0.47,0.1
	c-0.2,0-0.36-0.06-0.48-0.17c-0.12-0.11-0.18-0.27-0.18-0.46c0-0.3,0.09-0.54,0.26-0.74c0.17-0.19,0.4-0.29,0.68-0.29
	c0.16,0,0.3,0.03,0.41,0.1L221.06,26.76z"/>
<path class="st7" d="M222.63,26.64c-0.17,0-0.3,0.08-0.4,0.24c-0.1,0.16-0.15,0.34-0.15,0.55c0,0.17,0.08,0.26,0.25,0.26
	c0.11,0,0.2-0.07,0.28-0.2c0.08-0.13,0.15-0.41,0.21-0.82C222.76,26.65,222.69,26.64,222.63,26.64z M223.06,27.39
	c-0.01,0.04-0.01,0.08-0.01,0.12c0,0.22,0.02,0.37,0.05,0.45h-0.23c-0.07,0-0.12-0.05-0.15-0.16c-0.13,0.13-0.29,0.19-0.48,0.19
	c-0.17,0-0.31-0.05-0.4-0.15c-0.09-0.1-0.14-0.23-0.14-0.41c0-0.3,0.09-0.56,0.27-0.78c0.18-0.22,0.42-0.32,0.7-0.33
	c0.27,0,0.46,0.03,0.58,0.07L223.06,27.39z"/>
<path class="st7" d="M224.17,28.63v-0.18c0.02,0.01,0.04,0.01,0.06,0.01c0.06,0,0.11-0.01,0.16-0.04c0.06-0.03,0.09-0.07,0.09-0.12
	c0-0.03-0.01-0.07-0.04-0.1c-0.03-0.03-0.06-0.04-0.1-0.04l0.09-0.13c0.23,0.01,0.34,0.11,0.34,0.28c0,0.11-0.05,0.2-0.16,0.26
	c-0.09,0.05-0.19,0.07-0.32,0.07C224.28,28.64,224.24,28.64,224.17,28.63z M225.19,26.76c-0.1-0.08-0.21-0.12-0.32-0.12
	c-0.17,0-0.31,0.06-0.41,0.19c-0.1,0.13-0.15,0.29-0.15,0.48c0,0.1,0.03,0.18,0.09,0.25c0.06,0.07,0.13,0.11,0.23,0.11
	c0.13,0,0.29-0.06,0.47-0.17l-0.04,0.39c-0.15,0.06-0.31,0.1-0.47,0.1c-0.2,0-0.36-0.06-0.48-0.17c-0.12-0.11-0.18-0.27-0.18-0.46
	c0-0.3,0.09-0.54,0.26-0.74c0.17-0.19,0.4-0.29,0.68-0.29c0.16,0,0.3,0.03,0.41,0.1L225.19,26.76z"/>
<path class="st7" d="M226.43,26.04h-0.24c0.02-0.1,0.07-0.19,0.13-0.27c0.07-0.07,0.14-0.11,0.23-0.11c0.05,0,0.12,0.02,0.22,0.06
	c0.1,0.04,0.16,0.06,0.19,0.06c0.03,0,0.06-0.01,0.09-0.04c0.03-0.03,0.05-0.06,0.05-0.09h0.24c-0.02,0.09-0.06,0.17-0.13,0.25
	c-0.07,0.08-0.14,0.12-0.22,0.12c-0.03,0-0.1-0.02-0.21-0.07c-0.11-0.05-0.19-0.07-0.22-0.07C226.5,25.91,226.46,25.95,226.43,26.04
	z M226.75,26.64c-0.17,0-0.3,0.08-0.4,0.24c-0.1,0.16-0.15,0.34-0.15,0.55c0,0.17,0.08,0.26,0.25,0.26c0.11,0,0.2-0.07,0.28-0.2
	c0.08-0.13,0.15-0.41,0.21-0.82C226.88,26.65,226.82,26.64,226.75,26.64z M227.18,27.39c-0.01,0.04-0.01,0.08-0.01,0.12
	c0,0.22,0.02,0.37,0.05,0.45h-0.23c-0.07,0-0.12-0.05-0.16-0.16c-0.13,0.13-0.29,0.19-0.48,0.19c-0.17,0-0.31-0.05-0.4-0.15
	c-0.09-0.1-0.14-0.23-0.14-0.41c0-0.3,0.09-0.56,0.27-0.78c0.18-0.22,0.42-0.32,0.7-0.33c0.27,0,0.46,0.03,0.58,0.07L227.18,27.39z"
	/>
<path class="st7" d="M228.42,27.35c0,0.23,0.1,0.34,0.29,0.34c0.16,0,0.28-0.07,0.37-0.21c0.09-0.14,0.14-0.31,0.14-0.51
	c0-0.21-0.1-0.32-0.29-0.32c-0.15,0-0.27,0.07-0.37,0.21C228.46,26.99,228.42,27.16,228.42,27.35z M228.03,27.36
	c0-0.29,0.09-0.53,0.26-0.73c0.18-0.2,0.4-0.3,0.67-0.3c0.21,0,0.36,0.05,0.48,0.16c0.11,0.11,0.17,0.26,0.17,0.45
	c0,0.29-0.09,0.54-0.26,0.74c-0.17,0.2-0.4,0.3-0.67,0.3c-0.2,0-0.36-0.05-0.47-0.16C228.09,27.72,228.03,27.57,228.03,27.36z"/>
<rect x="208.19" y="19.82" class="st8" width="21.05" height="4.05"/>
<rect x="208.19" y="19.82" class="st9" width="21.05" height="4.05"/>
<polygon class="st10" points="209.04,23.26 210.03,23.26 210.57,20.44 209.58,20.44 "/>
<path class="st10" d="M210.57,23.11c0.26,0.13,0.58,0.19,0.94,0.19c0.74,0,1.11-0.44,1.19-0.84c0.15-0.8-0.93-0.84-0.87-1.19
	c0.02-0.12,0.14-0.19,0.31-0.19c0.21,0,0.41,0.12,0.64,0.37l0.14-0.75c-0.24-0.21-0.5-0.3-0.83-0.3c-0.75,0-1.09,0.49-1.16,0.85
	c-0.16,0.83,0.89,0.87,0.83,1.18c-0.02,0.11-0.14,0.19-0.32,0.19c-0.24,0-0.48-0.1-0.72-0.28L210.57,23.11z"/>
<path class="st10" d="M214.16,21.85c0.07-0.38,0.33-0.62,0.67-0.62c0.34,0,0.5,0.24,0.43,0.62c-0.07,0.38-0.33,0.62-0.67,0.62
	C214.25,22.47,214.09,22.23,214.16,21.85z M213.17,21.85c-0.15,0.78,0.24,1.45,1.26,1.45c1.08,0,1.68-0.73,1.82-1.45
	c0.14-0.73-0.2-1.45-1.26-1.45C213.93,20.4,213.31,21.1,213.17,21.85z"/>
<path class="st10" d="M218.88,21.45c0.05-0.24,0.26-0.4,0.5-0.4c0.25,0,0.4,0.16,0.36,0.39c-0.05,0.24-0.27,0.42-0.52,0.42
	C218.98,21.87,218.84,21.69,218.88,21.45z M218.75,23.3c1.04-0.39,1.64-1.12,1.76-1.75c0.1-0.55-0.12-1.16-1.02-1.16
	c-0.8,0-1.29,0.49-1.38,0.98c-0.09,0.5,0.21,0.87,0.77,0.93c-0.24,0.22-0.59,0.39-1.02,0.48L218.75,23.3z"/>
<path class="st10" d="M221.6,21.85c0.08-0.44,0.26-0.74,0.57-0.74c0.31,0,0.37,0.29,0.29,0.74c-0.09,0.48-0.28,0.74-0.57,0.74
	C221.53,22.59,221.53,22.21,221.6,21.85z M220.81,21.85c-0.17,0.88,0.21,1.45,0.94,1.45c0.73,0,1.32-0.58,1.49-1.45
	c0.17-0.88-0.21-1.45-0.94-1.45C221.57,20.4,220.98,20.97,220.81,21.85z"/>
<path class="st10" d="M224.41,21.85c0.08-0.44,0.26-0.74,0.57-0.74c0.31,0,0.37,0.29,0.29,0.74c-0.09,0.48-0.28,0.74-0.57,0.74
	C224.34,22.59,224.34,22.21,224.41,21.85z M223.62,21.85c-0.17,0.88,0.21,1.45,0.94,1.45c0.73,0,1.32-0.58,1.49-1.45
	c0.17-0.88-0.21-1.45-0.94-1.45C224.38,20.4,223.79,20.97,223.62,21.85z"/>
<polygon class="st10" points="226.91,23.26 227.85,23.26 228.38,20.44 227.45,20.44 "/>
<path class="st8" d="M215.81,14.68c0.37-2.32-0.77-3.77-3.12-3.77c-2.21,0-3.98,1.36-4.34,3.63c-0.37,2.34,1.11,3.62,3.36,3.62
	c1.55,0,3.19-0.73,3.83-2.33h-2.32c-0.34,0.45-0.73,0.62-1.25,0.62c-0.99,0-1.43-0.53-1.27-1.51h5.07L215.81,14.68z M210.95,13.54
	c0.26-0.7,0.9-1.07,1.6-1.07c0.65,0,1.18,0.42,1.19,1.07H210.95z"/>
<path class="st8" d="M219.29,7.17c-0.74,0-1.45,0.61-1.56,1.35c-0.12,0.74,0.4,1.35,1.14,1.35c0.74,0,1.45-0.61,1.56-1.35
	C220.55,7.78,220.04,7.17,219.29,7.17z M219.87,11.13h-2.41l-1.08,6.79h2.41L219.87,11.13z"/>
<path class="st11" d="M229.12,8.18c-0.72-0.32-1.46-0.5-2.29-0.5c-1.4,0-2.92,0.61-4.06,1.62c-1.11,0.98-1.83,2.29-2.05,3.66
	c-0.23,1.48,0.06,2.78,1.01,3.77c0.88,0.94,2.12,1.47,3.52,1.47c0.81,0,1.46-0.2,2.36-0.46l0.49-3.11
	c-0.65,0.65-1.56,1.06-2.41,1.06c-1.62,0-2.52-1.14-2.27-2.71c0.25-1.55,1.51-2.77,3.1-2.77c0.89,0,1.69,0.38,2.1,1.1L229.12,8.18z"
	/>
<polygon class="st8" points="208.15,5.25 208.95,5.25 208.95,4.79 208.52,4.79 208.52,4.23 208.91,4.23 208.91,3.79 208.52,3.79 
	208.52,3.31 208.95,3.31 208.95,2.86 208.15,2.86 "/>
<path class="st8" d="M209.11,5.25h0.37l0.06-1.1c0.01-0.27,0.03-0.55,0.03-0.85l0.23,1.95h0.27l0.25-1.94
	c0,0.34,0.01,0.61,0.02,0.83l0.04,1.11h0.38l-0.16-2.39h-0.48L210,3.78c-0.02,0.13-0.04,0.38-0.07,0.77
	c-0.01-0.26-0.03-0.52-0.06-0.77l-0.1-0.91h-0.49L209.11,5.25z"/>
<path class="st8" d="M211.34,3.9V3.24c0.01,0,0.03,0,0.04,0c0.17,0,0.25,0.11,0.25,0.33c0,0.22-0.09,0.34-0.25,0.34
	C211.36,3.9,211.35,3.9,211.34,3.9z M210.97,5.25h0.37V4.26c0.03,0,0.06,0,0.08,0c0.35,0,0.56-0.26,0.56-0.71
	c0-0.47-0.2-0.69-0.62-0.69h-0.39V5.25z"/>
<path class="st8" d="M212.54,3.9V3.24c0.02,0,0.03,0,0.05,0c0.17,0,0.24,0.1,0.24,0.33c0,0.23-0.08,0.34-0.25,0.34
	C212.57,3.9,212.56,3.9,212.54,3.9z M212.18,5.25h0.37V4.26l0.31,0.99h0.4l-0.36-1.09c0.2-0.08,0.3-0.29,0.3-0.63
	c0-0.48-0.2-0.67-0.62-0.67h-0.39V5.25z"/>
<polygon class="st8" points="213.4,5.25 214.19,5.25 214.19,4.79 213.76,4.79 213.76,4.23 214.15,4.23 214.15,3.79 213.76,3.79 
	213.76,3.31 214.19,3.31 214.19,2.86 213.4,2.86 "/>
<path class="st8" d="M214.39,5.17c0.09,0.08,0.2,0.11,0.33,0.11c0.34,0,0.54-0.27,0.54-0.7c0-0.34-0.11-0.47-0.3-0.67
	c-0.13-0.14-0.22-0.24-0.22-0.41c0-0.14,0.08-0.23,0.19-0.23c0.07,0,0.14,0.04,0.25,0.11V2.95c-0.11-0.08-0.21-0.12-0.32-0.12
	c-0.3,0-0.5,0.28-0.5,0.69c0,0.3,0.1,0.48,0.3,0.71c0.11,0.13,0.21,0.19,0.21,0.36c0,0.14-0.08,0.24-0.21,0.24
	c-0.1,0-0.19-0.05-0.28-0.16V5.17z"/>
<path class="st8" d="M215.81,4.46c0.05-0.38,0.09-0.75,0.13-1.1c0.03,0.38,0.07,0.75,0.12,1.1H215.81z M215.31,5.25h0.38l0.06-0.42
	h0.38l0.06,0.42h0.38l-0.42-2.39h-0.4L215.31,5.25z"/>
<path class="st8" d="M218.26,5.23V4.75c-0.07,0.04-0.13,0.06-0.2,0.06c-0.24,0-0.43-0.28-0.43-0.75c0-0.48,0.18-0.77,0.42-0.77
	c0.07,0,0.13,0.02,0.21,0.05V2.89c-0.07-0.04-0.15-0.06-0.24-0.06c-0.46,0-0.8,0.48-0.8,1.25c0,0.73,0.34,1.2,0.81,1.2
	C218.11,5.28,218.18,5.27,218.26,5.23z"/>
<polygon class="st8" points="218.49,5.25 219.29,5.25 219.29,4.79 218.86,4.79 218.86,4.23 219.25,4.23 219.25,3.79 218.86,3.79 
	218.86,3.31 219.29,3.31 219.29,2.86 218.49,2.86 "/>
<path class="st8" d="M219.91,3.9V3.24c0.02,0,0.03,0,0.05,0c0.17,0,0.24,0.1,0.24,0.33c0,0.23-0.08,0.34-0.25,0.34
	C219.94,3.9,219.92,3.9,219.91,3.9z M219.54,5.25h0.37V4.26l0.31,0.99h0.4l-0.36-1.09c0.2-0.08,0.3-0.29,0.3-0.63
	c0-0.48-0.2-0.67-0.62-0.67h-0.39V5.25z"/>
<polygon class="st8" points="220.94,5.25 221.32,5.25 221.32,3.31 221.61,3.31 221.61,2.86 220.65,2.86 220.65,3.31 220.94,3.31 "/>
<rect x="221.81" y="2.86" class="st8" width="0.38" height="2.39"/>
<polygon class="st8" points="222.51,5.25 222.87,5.25 222.87,4.24 223.29,4.24 223.29,3.8 222.87,3.8 222.87,3.31 223.32,3.31 
	223.32,2.86 222.51,2.86 "/>
<rect x="223.56" y="2.86" class="st8" width="0.38" height="2.39"/>
<path class="st8" d="M225.23,5.23V4.75c-0.07,0.04-0.13,0.06-0.2,0.06c-0.24,0-0.43-0.28-0.43-0.75c0-0.48,0.18-0.77,0.42-0.77
	c0.07,0,0.13,0.02,0.21,0.05V2.89c-0.07-0.04-0.15-0.06-0.24-0.06c-0.46,0-0.8,0.48-0.8,1.25c0,0.73,0.34,1.2,0.81,1.2
	C225.08,5.28,225.15,5.27,225.23,5.23z"/>
<path class="st8" d="M225.81,4.46c0.05-0.38,0.09-0.75,0.13-1.1c0.03,0.38,0.07,0.75,0.12,1.1H225.81z M225.31,5.25h0.38l0.06-0.42
	h0.38l0.06,0.42h0.38l-0.42-2.39h-0.4L225.31,5.25z"/>
<path class="st8" d="M227.07,4.81V3.3c0.01,0,0.02,0,0.02,0c0.28,0,0.42,0.25,0.42,0.77c0,0.49-0.15,0.74-0.41,0.74
	C227.1,4.81,227.08,4.81,227.07,4.81z M226.7,5.25h0.28c0.24,0,0.42-0.02,0.58-0.18c0.23-0.22,0.33-0.55,0.33-1.01
	c0-0.8-0.29-1.2-0.87-1.2h-0.32V5.25z"/>
<path class="st8" d="M228.42,4.46c0.05-0.38,0.09-0.75,0.13-1.1c0.03,0.38,0.07,0.75,0.12,1.1H228.42z M227.92,5.25h0.38l0.06-0.42
	h0.38l0.06,0.42h0.38l-0.42-2.39h-0.4L227.92,5.25z"/>
<path class="st8" d="M186.17,35.49h0.5v-2.47h-0.5V35.49z M184.95,35.49h0.49v-4.04h-0.49V35.49z M188.76,34.86
	c-0.11,0.15-0.26,0.23-0.43,0.23c-0.19,0-0.33-0.07-0.44-0.21c-0.1-0.14-0.15-0.35-0.15-0.61c0-0.26,0.05-0.46,0.16-0.61
	c0.11-0.15,0.25-0.22,0.44-0.22c0.19,0,0.33,0.07,0.44,0.21c0.1,0.14,0.16,0.34,0.16,0.6C188.92,34.5,188.87,34.71,188.76,34.86z
	 M188.91,33.43c-0.06-0.16-0.15-0.28-0.27-0.36c-0.13-0.08-0.28-0.13-0.45-0.13c-0.29,0-0.52,0.12-0.7,0.36
	c-0.18,0.24-0.27,0.56-0.27,0.96c0,0.42,0.09,0.74,0.26,0.98c0.18,0.24,0.42,0.36,0.72,0.36c0.15,0,0.29-0.03,0.4-0.1
	c0.12-0.07,0.22-0.18,0.31-0.32v0.32h0.49v-4.04h-0.49V33.43z M193.92,32.97c-0.07-0.02-0.14-0.03-0.21-0.03
	c-0.13,0-0.24,0.04-0.32,0.12c-0.09,0.08-0.16,0.2-0.21,0.36v-0.4h-0.5v2.47h0.5v-1.08c0-0.35,0.04-0.61,0.11-0.76
	c0.07-0.15,0.19-0.23,0.35-0.23c0.06,0,0.12,0.01,0.17,0.02c0.05,0.02,0.1,0.04,0.14,0.08l0.18-0.48
	C194.05,33.01,193.98,32.99,193.92,32.97z M190.47,33.96c0.04-0.18,0.11-0.32,0.21-0.41c0.1-0.09,0.23-0.14,0.39-0.14
	c0.17,0,0.31,0.05,0.41,0.14c0.1,0.09,0.16,0.23,0.18,0.4H190.47z M191.06,32.94c-0.33,0-0.6,0.12-0.82,0.37
	c-0.21,0.25-0.32,0.57-0.32,0.96c0,0.4,0.1,0.73,0.31,0.97c0.21,0.24,0.48,0.36,0.83,0.36c0.24,0,0.45-0.06,0.63-0.18
	c0.18-0.12,0.33-0.31,0.45-0.56l-0.42-0.27c-0.08,0.17-0.17,0.29-0.28,0.37c-0.11,0.08-0.24,0.12-0.4,0.12
	c-0.18,0-0.32-0.06-0.43-0.19c-0.11-0.13-0.17-0.31-0.18-0.54h1.73v-0.11c0-0.41-0.1-0.73-0.29-0.96
	C191.68,33.05,191.41,32.94,191.06,32.94z M186.09,32.65h0.28l0.67-0.71h-0.51L186.09,32.65z M176.02,33.74h-0.49v-0.83h0.49
	c0.23,0,0.39,0.12,0.39,0.42C176.41,33.63,176.25,33.74,176.02,33.74z M176.13,32.23h-1.34v3.23h0.74v-1.08h0.61
	c0.62,0,1.02-0.31,1.02-1.11C177.15,32.51,176.66,32.23,176.13,32.23z M181.89,34.12h1.38v-0.65h-1.38v-0.57h1.51v-0.67h-2.25v3.23
	h2.29v-0.72h-1.55V34.12z M179.08,34.39l-0.49-2.15h-1.08v3.23h0.69v-2.45l0.6,2.45h0.56l0.59-2.45l0.01,2.45h0.69v-3.23h-1.08
	L179.08,34.39z M194.97,32.32c0.04-0.29,0.09-0.68,0.16-0.88l-0.15,0.02c-0.07,0.13-0.25,0.59-0.33,0.94L194.97,32.32z"/>
<path class="st12" d="M188.6,24.26l-0.36-0.04c-0.85-0.09-1.71-0.15-2.57-0.18c-0.2,0.31-0.4,0.61-0.6,0.91
	c-0.33,0.48-0.67,1-1.12,1.38c-1.09,0.93-2.58,1.46-3.99,1.61c-1.36,0.14-3.08-0.39-3.39-1.92c-0.19-0.94,0.03-1.8,0.67-2.53
	c0.51-0.58,1.23-0.93,1.94-1.2c0.72-0.28,1.49-0.44,2.25-0.54c0.94-0.13,1.88-0.21,2.82-0.23l0.47-0.83
	c1.07-1.89,2.08-3.81,3.07-5.74c1.51-2.95,2.93-5.96,4.45-8.9c0.32-0.61,1.15-0.78,1.72-0.45c0.61,0.36,0.77,1.11,0.45,1.72
	c-1.22,2.35-2.35,4.75-3.54,7.11c-1,1.99-2.02,3.96-3.09,5.92c-0.23,0.41-0.45,0.83-0.68,1.24l0.41,0.03
	c1.98,0.17,3.99,0.47,5.88,1.1c0.78,0.26,1.57,0.56,2.27,1c0.59,0.37,1.2,0.86,1.52,1.5c0.31,0.61,0.17,1.36-0.45,1.72
	c-0.56,0.33-1.41,0.16-1.72-0.45c-0.03-0.06-0.06-0.12-0.1-0.17c-0.08-0.09-0.17-0.17-0.26-0.25l-0.11-0.08
	c-0.08-0.06-0.17-0.11-0.25-0.16c-0.19-0.11-0.38-0.21-0.57-0.3l-0.3-0.13l-0.14-0.06c-0.24-0.09-0.49-0.18-0.74-0.26
	c-0.55-0.17-1.1-0.32-1.66-0.44c-0.47-0.1-0.94-0.19-1.42-0.27l-0.6-0.09L188.6,24.26z M181.41,24.97c0.28-0.14,0.56-0.29,0.82-0.46
	c0.11-0.1,0.17-0.17,0.24-0.25l0.1-0.12l-0.23,0.02l-0.28,0.03l-0.12,0.02c-0.2,0.03-0.4,0.06-0.59,0.1
	c-0.38,0.07-0.75,0.16-1.11,0.28c-0.14,0.04-0.28,0.09-0.41,0.15l-0.24,0.12c-0.12,0.07-0.25,0.14-0.36,0.22l-0.09,0.08l-0.08,0.08
	L179,25.34c0.07,0.08,0.12,0.09,0.17,0.1c0.07,0,0.28,0.02,0.35,0.02c0.09,0,0.18-0.01,0.27-0.01c0.06-0.01,0.28-0.04,0.34-0.06
	c0.16-0.03,0.31-0.07,0.47-0.12c0.19-0.06,0.37-0.12,0.55-0.19C181.26,25.04,181.34,25.01,181.41,24.97z M199.03,27.82
	c0,1.1-0.98,1.98-2.19,1.98h-19.87c-1.21,0-2.19-0.89-2.19-1.98v-23c0-1.09,0.98-1.98,2.19-1.98h19.87c1.21,0,2.19,0.89,2.19,1.98
	V27.82z"/>
<path class="st8" d="M142.76,34.33l0.4,0.08c-0.06,0.37-0.18,0.66-0.35,0.86c-0.17,0.2-0.39,0.3-0.66,0.3
	c-0.34,0-0.61-0.16-0.8-0.49c-0.2-0.32-0.3-0.78-0.3-1.37c0-0.61,0.1-1.08,0.3-1.41c0.2-0.34,0.46-0.51,0.78-0.51
	c0.31,0,0.56,0.17,0.76,0.49c0.2,0.33,0.29,0.79,0.29,1.38c0,0.04,0,0.09,0,0.16h-1.72c0.01,0.4,0.09,0.7,0.22,0.91
	c0.13,0.21,0.29,0.32,0.48,0.32c0.14,0,0.27-0.06,0.37-0.18C142.62,34.77,142.7,34.59,142.76,34.33z M141.47,33.34h1.29
	c-0.02-0.3-0.07-0.53-0.15-0.68c-0.12-0.24-0.29-0.35-0.48-0.35c-0.18,0-0.33,0.09-0.45,0.28
	C141.55,32.77,141.48,33.02,141.47,33.34z M143.39,35.49l0.84-1.87l-0.78-1.73h0.49l0.35,0.85c0.07,0.16,0.12,0.29,0.16,0.4
	c0.06-0.15,0.12-0.28,0.18-0.4l0.39-0.85h0.47l-0.8,1.7l0.86,1.91h-0.48l-0.47-1.12l-0.13-0.3l-0.61,1.42H143.39z M147.39,34.17
	l0.38,0.08c-0.04,0.41-0.15,0.74-0.32,0.97c-0.17,0.23-0.39,0.35-0.64,0.35c-0.32,0-0.57-0.16-0.76-0.48
	c-0.19-0.32-0.29-0.79-0.29-1.39c0-0.39,0.04-0.73,0.12-1.02c0.08-0.29,0.21-0.51,0.38-0.66c0.17-0.14,0.35-0.22,0.55-0.22
	c0.25,0,0.46,0.1,0.62,0.3c0.16,0.2,0.26,0.48,0.31,0.84l-0.38,0.09c-0.04-0.24-0.1-0.42-0.19-0.55c-0.09-0.12-0.2-0.18-0.33-0.18
	c-0.2,0-0.36,0.11-0.48,0.33c-0.12,0.22-0.19,0.57-0.19,1.05c0,0.49,0.06,0.84,0.18,1.06c0.12,0.22,0.28,0.33,0.47,0.33
	c0.15,0,0.28-0.07,0.38-0.22C147.29,34.7,147.36,34.47,147.39,34.17z M149.69,34.33l0.4,0.08c-0.06,0.37-0.18,0.66-0.35,0.86
	c-0.17,0.2-0.39,0.3-0.66,0.3c-0.34,0-0.61-0.16-0.8-0.49c-0.2-0.32-0.3-0.78-0.3-1.37c0-0.61,0.1-1.08,0.3-1.41
	c0.2-0.34,0.46-0.51,0.78-0.51c0.31,0,0.56,0.17,0.76,0.49c0.2,0.33,0.29,0.79,0.29,1.38c0,0.04,0,0.09,0,0.16h-1.72
	c0.01,0.4,0.09,0.7,0.21,0.91c0.13,0.21,0.29,0.32,0.48,0.32c0.14,0,0.27-0.06,0.37-0.18C149.55,34.77,149.63,34.59,149.69,34.33z
	 M148.4,33.34h1.29c-0.02-0.3-0.07-0.53-0.15-0.68c-0.12-0.24-0.29-0.35-0.49-0.35c-0.18,0-0.33,0.09-0.45,0.28
	C148.48,32.77,148.42,33.02,148.4,33.34z M150.58,35.49v-4.97h0.39v4.97H150.58z M153.15,34.33l0.4,0.08
	c-0.06,0.37-0.18,0.66-0.35,0.86c-0.17,0.2-0.39,0.3-0.66,0.3c-0.34,0-0.61-0.16-0.8-0.49c-0.2-0.32-0.3-0.78-0.3-1.37
	c0-0.61,0.1-1.08,0.3-1.41c0.2-0.34,0.46-0.51,0.78-0.51c0.31,0,0.56,0.17,0.76,0.49c0.2,0.33,0.29,0.79,0.29,1.38
	c0,0.04,0,0.09,0,0.16h-1.72c0.01,0.4,0.09,0.7,0.22,0.91c0.13,0.21,0.29,0.32,0.48,0.32c0.14,0,0.27-0.06,0.37-0.18
	C153.01,34.77,153.1,34.59,153.15,34.33z M152.51,30.86l-0.25,0.58h-0.45l0.47-0.95h0.42l0.49,0.95h-0.44L152.51,30.86z
	 M151.87,33.34h1.29c-0.02-0.3-0.07-0.53-0.15-0.68c-0.13-0.24-0.29-0.35-0.49-0.35c-0.18,0-0.33,0.09-0.45,0.28
	C151.95,32.77,151.88,33.02,151.87,33.34z M154.05,35.49v-3.6h0.35v0.51c0.17-0.4,0.42-0.59,0.74-0.59c0.14,0,0.27,0.04,0.38,0.12
	c0.12,0.08,0.2,0.18,0.26,0.31c0.06,0.13,0.1,0.28,0.12,0.45c0.01,0.11,0.02,0.31,0.02,0.59v2.22h-0.39v-2.19
	c0-0.25-0.02-0.43-0.05-0.56c-0.03-0.12-0.08-0.22-0.16-0.29c-0.08-0.07-0.17-0.11-0.27-0.11c-0.17,0-0.31,0.08-0.43,0.25
	c-0.12,0.17-0.18,0.48-0.18,0.94v1.97H154.05z M158.04,34.17l0.38,0.08c-0.04,0.41-0.15,0.74-0.32,0.97
	c-0.17,0.23-0.39,0.35-0.64,0.35c-0.32,0-0.57-0.16-0.76-0.48c-0.19-0.32-0.29-0.79-0.29-1.39c0-0.39,0.04-0.73,0.12-1.02
	c0.08-0.29,0.21-0.51,0.38-0.66c0.17-0.14,0.35-0.22,0.55-0.22c0.25,0,0.46,0.1,0.62,0.3c0.16,0.2,0.26,0.48,0.31,0.84L158,33.04
	c-0.04-0.24-0.1-0.42-0.19-0.55c-0.09-0.12-0.2-0.18-0.33-0.18c-0.2,0-0.36,0.11-0.48,0.33c-0.12,0.22-0.18,0.57-0.18,1.05
	c0,0.49,0.06,0.84,0.18,1.06c0.12,0.22,0.27,0.33,0.47,0.33c0.15,0,0.28-0.07,0.38-0.22C157.94,34.7,158.01,34.47,158.04,34.17z
	 M158.76,31.21v-0.7h0.39v0.7H158.76z M158.76,35.49v-3.6h0.39v3.6H158.76z M161.25,35.04c-0.15,0.19-0.28,0.33-0.42,0.41
	c-0.13,0.08-0.28,0.12-0.43,0.12c-0.25,0-0.45-0.1-0.59-0.29c-0.14-0.19-0.2-0.44-0.2-0.74c0-0.18,0.03-0.34,0.08-0.49
	c0.05-0.15,0.12-0.26,0.2-0.35c0.08-0.09,0.18-0.15,0.28-0.2c0.08-0.03,0.19-0.06,0.35-0.09c0.32-0.06,0.55-0.13,0.7-0.21
	c0-0.08,0-0.14,0-0.16c0-0.25-0.04-0.42-0.11-0.53c-0.1-0.14-0.25-0.21-0.44-0.21c-0.18,0-0.32,0.05-0.41,0.15
	c-0.09,0.1-0.15,0.28-0.19,0.53l-0.38-0.08c0.03-0.26,0.09-0.46,0.17-0.62c0.08-0.16,0.19-0.28,0.35-0.36
	c0.15-0.09,0.33-0.13,0.52-0.13c0.2,0,0.36,0.04,0.48,0.11c0.12,0.07,0.21,0.16,0.27,0.27c0.06,0.11,0.1,0.25,0.12,0.42
	c0.01,0.1,0.02,0.29,0.02,0.57v0.81c0,0.57,0.01,0.93,0.02,1.08c0.02,0.15,0.05,0.29,0.1,0.43h-0.41
	C161.29,35.36,161.26,35.22,161.25,35.04z M161.22,33.68c-0.14,0.09-0.36,0.17-0.64,0.23c-0.16,0.04-0.27,0.08-0.34,0.12
	c-0.07,0.05-0.12,0.11-0.15,0.2c-0.04,0.09-0.05,0.18-0.05,0.29c0,0.16,0.04,0.3,0.12,0.41c0.08,0.11,0.19,0.16,0.35,0.16
	c0.15,0,0.28-0.05,0.4-0.16c0.12-0.1,0.2-0.24,0.26-0.42c0.04-0.14,0.06-0.34,0.06-0.61V33.68z M162.45,31.2h0.31l-0.3,1.33h-0.24
	L162.45,31.2z"/>
<path class="st13" d="M142.76,34.33l0.4,0.08c-0.06,0.37-0.18,0.66-0.35,0.86c-0.17,0.2-0.39,0.3-0.66,0.3
	c-0.34,0-0.61-0.16-0.8-0.49c-0.2-0.32-0.3-0.78-0.3-1.37c0-0.61,0.1-1.08,0.3-1.41c0.2-0.34,0.46-0.51,0.78-0.51
	c0.31,0,0.56,0.17,0.76,0.49c0.2,0.33,0.29,0.79,0.29,1.38c0,0.04,0,0.09,0,0.16h-1.72c0.01,0.4,0.09,0.7,0.22,0.91
	c0.13,0.21,0.29,0.32,0.48,0.32c0.14,0,0.27-0.06,0.37-0.18C142.62,34.77,142.7,34.59,142.76,34.33z M141.47,33.34h1.29
	c-0.02-0.3-0.07-0.53-0.15-0.68c-0.12-0.24-0.29-0.35-0.48-0.35c-0.18,0-0.33,0.09-0.45,0.28
	C141.55,32.77,141.48,33.02,141.47,33.34z M143.39,35.49l0.84-1.87l-0.78-1.73h0.49l0.35,0.85c0.07,0.16,0.12,0.29,0.16,0.4
	c0.06-0.15,0.12-0.28,0.18-0.4l0.39-0.85h0.47l-0.8,1.7l0.86,1.91h-0.48l-0.47-1.12l-0.13-0.3l-0.61,1.42H143.39z M147.39,34.17
	l0.38,0.08c-0.04,0.41-0.15,0.74-0.32,0.97c-0.17,0.23-0.39,0.35-0.64,0.35c-0.32,0-0.57-0.16-0.76-0.48
	c-0.19-0.32-0.29-0.79-0.29-1.39c0-0.39,0.04-0.73,0.12-1.02c0.08-0.29,0.21-0.51,0.38-0.66c0.17-0.14,0.35-0.22,0.55-0.22
	c0.25,0,0.46,0.1,0.62,0.3c0.16,0.2,0.26,0.48,0.31,0.84l-0.38,0.09c-0.04-0.24-0.1-0.42-0.19-0.55c-0.09-0.12-0.2-0.18-0.33-0.18
	c-0.2,0-0.36,0.11-0.48,0.33c-0.12,0.22-0.19,0.57-0.19,1.05c0,0.49,0.06,0.84,0.18,1.06c0.12,0.22,0.28,0.33,0.47,0.33
	c0.15,0,0.28-0.07,0.38-0.22C147.29,34.7,147.36,34.47,147.39,34.17z M149.69,34.33l0.4,0.08c-0.06,0.37-0.18,0.66-0.35,0.86
	c-0.17,0.2-0.39,0.3-0.66,0.3c-0.34,0-0.61-0.16-0.8-0.49c-0.2-0.32-0.3-0.78-0.3-1.37c0-0.61,0.1-1.08,0.3-1.41
	c0.2-0.34,0.46-0.51,0.78-0.51c0.31,0,0.56,0.17,0.76,0.49c0.2,0.33,0.29,0.79,0.29,1.38c0,0.04,0,0.09,0,0.16h-1.72
	c0.01,0.4,0.09,0.7,0.21,0.91c0.13,0.21,0.29,0.32,0.48,0.32c0.14,0,0.27-0.06,0.37-0.18C149.55,34.77,149.63,34.59,149.69,34.33z
	 M148.4,33.34h1.29c-0.02-0.3-0.07-0.53-0.15-0.68c-0.12-0.24-0.29-0.35-0.49-0.35c-0.18,0-0.33,0.09-0.45,0.28
	C148.48,32.77,148.42,33.02,148.4,33.34z M150.58,35.49v-4.97h0.39v4.97H150.58z M153.15,34.33l0.4,0.08
	c-0.06,0.37-0.18,0.66-0.35,0.86c-0.17,0.2-0.39,0.3-0.66,0.3c-0.34,0-0.61-0.16-0.8-0.49c-0.2-0.32-0.3-0.78-0.3-1.37
	c0-0.61,0.1-1.08,0.3-1.41c0.2-0.34,0.46-0.51,0.78-0.51c0.31,0,0.56,0.17,0.76,0.49c0.2,0.33,0.29,0.79,0.29,1.38
	c0,0.04,0,0.09,0,0.16h-1.72c0.01,0.4,0.09,0.7,0.22,0.91c0.13,0.21,0.29,0.32,0.48,0.32c0.14,0,0.27-0.06,0.37-0.18
	C153.01,34.77,153.1,34.59,153.15,34.33z M152.51,30.86l-0.25,0.58h-0.45l0.47-0.95h0.42l0.49,0.95h-0.44L152.51,30.86z
	 M151.87,33.34h1.29c-0.02-0.3-0.07-0.53-0.15-0.68c-0.13-0.24-0.29-0.35-0.49-0.35c-0.18,0-0.33,0.09-0.45,0.28
	C151.95,32.77,151.88,33.02,151.87,33.34z M154.05,35.49v-3.6h0.35v0.51c0.17-0.4,0.42-0.59,0.74-0.59c0.14,0,0.27,0.04,0.38,0.12
	c0.12,0.08,0.2,0.18,0.26,0.31c0.06,0.13,0.1,0.28,0.12,0.45c0.01,0.11,0.02,0.31,0.02,0.59v2.22h-0.39v-2.19
	c0-0.25-0.02-0.43-0.05-0.56c-0.03-0.12-0.08-0.22-0.16-0.29c-0.08-0.07-0.17-0.11-0.27-0.11c-0.17,0-0.31,0.08-0.43,0.25
	c-0.12,0.17-0.18,0.48-0.18,0.94v1.97H154.05z M158.04,34.17l0.38,0.08c-0.04,0.41-0.15,0.74-0.32,0.97
	c-0.17,0.23-0.39,0.35-0.64,0.35c-0.32,0-0.57-0.16-0.76-0.48c-0.19-0.32-0.29-0.79-0.29-1.39c0-0.39,0.04-0.73,0.12-1.02
	c0.08-0.29,0.21-0.51,0.38-0.66c0.17-0.14,0.35-0.22,0.55-0.22c0.25,0,0.46,0.1,0.62,0.3c0.16,0.2,0.26,0.48,0.31,0.84L158,33.04
	c-0.04-0.24-0.1-0.42-0.19-0.55c-0.09-0.12-0.2-0.18-0.33-0.18c-0.2,0-0.36,0.11-0.48,0.33c-0.12,0.22-0.18,0.57-0.18,1.05
	c0,0.49,0.06,0.84,0.18,1.06c0.12,0.22,0.27,0.33,0.47,0.33c0.15,0,0.28-0.07,0.38-0.22C157.94,34.7,158.01,34.47,158.04,34.17z
	 M158.76,31.21v-0.7h0.39v0.7H158.76z M158.76,35.49v-3.6h0.39v3.6H158.76z M161.25,35.04c-0.15,0.19-0.28,0.33-0.42,0.41
	c-0.13,0.08-0.28,0.12-0.43,0.12c-0.25,0-0.45-0.1-0.59-0.29c-0.14-0.19-0.2-0.44-0.2-0.74c0-0.18,0.03-0.34,0.08-0.49
	c0.05-0.15,0.12-0.26,0.2-0.35c0.08-0.09,0.18-0.15,0.28-0.2c0.08-0.03,0.19-0.06,0.35-0.09c0.32-0.06,0.55-0.13,0.7-0.21
	c0-0.08,0-0.14,0-0.16c0-0.25-0.04-0.42-0.11-0.53c-0.1-0.14-0.25-0.21-0.44-0.21c-0.18,0-0.32,0.05-0.41,0.15
	c-0.09,0.1-0.15,0.28-0.19,0.53l-0.38-0.08c0.03-0.26,0.09-0.46,0.17-0.62c0.08-0.16,0.19-0.28,0.35-0.36
	c0.15-0.09,0.33-0.13,0.52-0.13c0.2,0,0.36,0.04,0.48,0.11c0.12,0.07,0.21,0.16,0.27,0.27c0.06,0.11,0.1,0.25,0.12,0.42
	c0.01,0.1,0.02,0.29,0.02,0.57v0.81c0,0.57,0.01,0.93,0.02,1.08c0.02,0.15,0.05,0.29,0.1,0.43h-0.41
	C161.29,35.36,161.26,35.22,161.25,35.04z M161.22,33.68c-0.14,0.09-0.36,0.17-0.64,0.23c-0.16,0.04-0.27,0.08-0.34,0.12
	c-0.07,0.05-0.12,0.11-0.15,0.2c-0.04,0.09-0.05,0.18-0.05,0.29c0,0.16,0.04,0.3,0.12,0.41c0.08,0.11,0.19,0.16,0.35,0.16
	c0.15,0,0.28-0.05,0.4-0.16c0.12-0.1,0.2-0.24,0.26-0.42c0.04-0.14,0.06-0.34,0.06-0.61V33.68z M162.45,31.2h0.31l-0.3,1.33h-0.24
	L162.45,31.2z"/>
<path class="st14" d="M165.64,27.83c0,1.1-0.98,1.98-2.19,1.98h-19.87c-1.21,0-2.19-0.89-2.19-1.98v-23c0-1.09,0.98-1.98,2.19-1.98
	h19.87c1.21,0,2.19,0.89,2.19,1.98V27.83z"/>
<path class="st6" d="M150.24,23.22c-0.05-0.7-0.06-1.47-0.01-2.29c0.2,0.1,0.39,0.2,0.6,0.29c0.72,0.35,1.44,0.66,2.15,0.95
	C152,22.63,151.07,22.98,150.24,23.22z M162.76,22.82c-0.88,1.08-4.16,0.78-7.96-0.58c0.92-0.52,1.84-1.13,2.75-1.8
	c4.5-3.33,6.81-7.08,5.18-8.38c-0.17-0.13-0.37-0.23-0.6-0.31c1.47,1.22-0.75,4.73-4.98,7.86c-1.15,0.86-2.34,1.6-3.48,2.2
	c-0.63-0.25-1.27-0.54-1.91-0.84c-0.52-0.25-1.02-0.5-1.49-0.76c0.1-1.25,0.32-2.61,0.64-4.02c1.36-5.91,4.18-10.47,6.3-10.18
	c0.7,0.1,1.24,0.71,1.59,1.7c-0.33-1.69-1-2.78-1.96-2.91c-2.23-0.3-5.21,4.55-6.66,10.85c-0.33,1.44-0.55,2.83-0.67,4.13
	c-3.62-2.12-5.67-4.44-4.74-5.58c0.59-0.73,2.28-0.83,4.47-0.4c-3-0.78-5.37-0.81-6.11,0.09c-1.07,1.32,1.7,4.17,6.32,6.63
	c-0.06,1.04-0.06,2.01,0.02,2.88c-1.22,0.24-2.19,0.17-2.74-0.26c-0.47-0.37-0.58-0.96-0.38-1.7c-0.55,1.18-0.56,2.14,0.12,2.68
	c0.63,0.5,1.74,0.56,3.12,0.27c0.3,1.86,0.99,3.06,2.02,3.2c0.32,0.04,0.65-0.02,0.99-0.17c-0.1,0.01-0.2,0-0.3-0.01
	c-1.01-0.14-1.68-1.34-1.95-3.21c1.15-0.33,2.45-0.87,3.8-1.59c4.14,1.49,7.7,1.84,8.63,0.7c0.21-0.26,0.28-0.58,0.2-0.95
	C162.95,22.52,162.88,22.68,162.76,22.82z"/>
<polygon class="st15" points="155.81,16.01 156.17,15.46 156.27,15.13 156.29,15.13 156.36,15.46 156.72,16.01 157.31,15.69 
	156.97,15.13 156.72,14.9 156.74,14.88 157.09,14.97 157.77,14.97 157.77,14.33 157.09,14.33 156.74,14.42 156.72,14.4 
	156.97,14.17 157.31,13.6 156.72,13.28 156.36,13.85 156.29,14.17 156.27,14.17 156.17,13.85 155.81,13.28 155.21,13.6 
	155.56,14.17 155.81,14.4 155.79,14.42 155.46,14.33 154.78,14.33 154.78,14.97 155.46,14.97 155.79,14.88 155.81,14.9 
	155.56,15.13 155.21,15.69 "/>
<path class="st8" d="M154.76,27.58v-2.3h0.83c0.31,0,0.51,0.01,0.61,0.03c0.15,0.04,0.27,0.11,0.37,0.22
	c0.1,0.12,0.15,0.27,0.15,0.45c0,0.14-0.03,0.26-0.08,0.36c-0.06,0.1-0.13,0.17-0.22,0.23c-0.09,0.05-0.18,0.09-0.27,0.11
	c-0.12,0.02-0.3,0.03-0.53,0.03h-0.34v0.87H154.76z M155.27,25.68v0.65h0.28c0.2,0,0.34-0.01,0.41-0.04
	c0.07-0.02,0.12-0.06,0.16-0.11c0.04-0.05,0.06-0.11,0.06-0.18c0-0.08-0.03-0.15-0.08-0.21c-0.05-0.06-0.12-0.09-0.21-0.1
	c-0.06-0.01-0.18-0.01-0.37-0.01H155.27z M157.12,27.58v-2.3h0.77l0.46,1.57l0.46-1.57h0.77v2.3h-0.48v-1.81l-0.51,1.81h-0.49
	l-0.5-1.81v1.81H157.12z M160.09,27.58v-2.3h1.88v0.39h-1.37v0.51h1.28v0.39h-1.28v0.63h1.42v0.39H160.09z"/>
<g>
	<path class="st16" d="M164.14,35.55h-0.29V32.1c-0.07,0.12-0.16,0.25-0.27,0.37c-0.11,0.12-0.21,0.22-0.3,0.28v-0.52
		c0.16-0.14,0.3-0.32,0.42-0.52c0.12-0.2,0.2-0.4,0.25-0.59h0.18V35.55z"/>
	<path class="st16" d="M164.89,31.72V31.2h1.51v0.42c-0.15,0.3-0.3,0.7-0.44,1.19c-0.15,0.5-0.26,1.01-0.34,1.53
		c-0.06,0.37-0.09,0.77-0.11,1.21h-0.29c0-0.35,0.04-0.77,0.11-1.26c0.07-0.49,0.17-0.97,0.3-1.42c0.13-0.46,0.27-0.84,0.41-1.15
		H164.89z"/>
</g>
<g>
	<path d="M196.05,31.98h0.29v3.57h-0.32v-3.04l-0.41,0.51l-0.18-0.32L196.05,31.98z"/>
	<path d="M198.41,33.68c0.19,0.1,0.33,0.22,0.43,0.38c0.09,0.16,0.14,0.34,0.14,0.56c0,0.29-0.08,0.53-0.24,0.72
		c-0.16,0.18-0.37,0.28-0.62,0.28c-0.25,0-0.45-0.09-0.61-0.28c-0.16-0.19-0.23-0.42-0.23-0.71c0-0.23,0.05-0.42,0.14-0.57
		c0.1-0.16,0.24-0.27,0.43-0.35c-0.16-0.1-0.27-0.22-0.36-0.38c-0.08-0.16-0.12-0.33-0.12-0.52c0-0.26,0.07-0.47,0.22-0.63
		c0.14-0.16,0.34-0.24,0.57-0.24c0.22,0,0.4,0.08,0.54,0.23c0.14,0.16,0.21,0.36,0.21,0.61c0,0.19-0.04,0.37-0.13,0.53
		S198.57,33.58,198.41,33.68z M198.09,33.86c-0.16,0.09-0.28,0.19-0.36,0.31c-0.08,0.12-0.12,0.26-0.12,0.42
		c0,0.18,0.05,0.33,0.14,0.45c0.1,0.12,0.22,0.18,0.36,0.18c0.14,0,0.26-0.06,0.36-0.18c0.1-0.12,0.14-0.27,0.14-0.44
		c0-0.16-0.04-0.3-0.13-0.42C198.41,34.06,198.27,33.95,198.09,33.86z M198.15,33.54c0.14-0.11,0.24-0.22,0.31-0.35
		c0.07-0.13,0.11-0.26,0.11-0.39c0-0.15-0.04-0.27-0.12-0.37c-0.08-0.1-0.18-0.15-0.3-0.15c-0.14,0-0.25,0.05-0.34,0.16
		c-0.09,0.1-0.13,0.24-0.13,0.4c0,0.15,0.04,0.27,0.11,0.39C197.87,33.32,197.98,33.43,198.15,33.54z"/>
</g>
</svg>
